<svg height="37.618" viewBox="0 0 197.829 37.618" width="197.829" xmlns="http://www.w3.org/2000/svg" xmlns:xlink="http://www.w3.org/1999/xlink"><clipPath id="a"><path d="m0 0h197.829v37.618h-197.829z"/></clipPath><g clip-path="url(#a)"><path d="m262.3 15.313a2.213 2.213 0 1 1 2.213 2.213 2.173 2.173 0 0 1 -2.213-2.213zm4.057 0a1.844 1.844 0 1 0 -1.844 1.844 1.782 1.782 0 0 0 1.844-1.844zm-2.582 1.254c-.074 0-.074 0-.074-.074v-2.287c0-.074 0-.074.074-.074h.885a.719.719 0 0 1 .811.738.631.631 0 0 1 -.516.664l.516.959c.074.074 0 .148-.074.148h-.221c-.074 0-.074-.074-.148-.074l-.516-.959h-.512v.885a.072.072 0 0 1 -.074.074h-.148zm1.325-1.767c0-.221-.148-.369-.443-.369h-.59v.738h.59c.298-.004.443-.151.443-.369z" fill="#002838" transform="translate(-68.897 -3.437)"/><path d="m80.533 29.285c-.221 0-.3-.074-.369-.3l-3.024-10.7h-.074l-3.024 10.7c-.074.221-.148.3-.369.3h-3.541c-.221 0-.3-.074-.369-.3l-5.163-18.585c0-.148 0-.3.221-.3h4.647a.337.337 0 0 1 .369.3l2.434 11.14h.074l2.955-11.14c.074-.221.148-.3.369-.3h2.877c.221 0 .3.074.369.3l3.1 11.138h.074l2.353-11.138a.337.337 0 0 1 .369-.3h4.647c.148 0 .221.148.221.3l-5.163 18.59c-.074.221-.148.3-.369.3h-3.614zm12.835 0a.317.317 0 0 1 -.3-.3v-18.585a.317.317 0 0 1 .3-.3h7.671c4.647 0 7.081 2.655 7.081 6.344s-2.434 6.417-7.081 6.417h-2.8c-.148 0-.148.074-.148.148v5.9a.317.317 0 0 1 -.3.3h-4.424zm9.81-12.761c0-1.328-.885-2.139-2.434-2.139h-2.509c-.148 0-.148.074-.148.148v3.983c0 .148.074.148.148.148h2.508a2.143 2.143 0 0 0 2.434-2.139zm11.507 8.04a14.155 14.155 0 0 1 -.516-4.795 16.788 16.788 0 0 1 .516-4.795 6.686 6.686 0 0 1 12.687 0 12.993 12.993 0 0 1 .516 4.5c0 .221-.148.369-.443.369h-12.023c-.148 0-.221.148-.221.3a13.321 13.321 0 0 0 .443 4.057 5.314 5.314 0 0 0 5.532 3.909 6.615 6.615 0 0 0 5.458-2.582.316.316 0 0 1 .516-.074l.221.221a.316.316 0 0 1 .074.516 7.377 7.377 0 0 1 -6.2 3.024 6.323 6.323 0 0 1 -6.565-4.647zm11.949-5.753a.2.2 0 0 0 .221-.221 9.969 9.969 0 0 0 -.443-3.172 5.22 5.22 0 0 0 -5.311-3.909 5.144 5.144 0 0 0 -5.311 3.909 9.658 9.658 0 0 0 -.443 3.172.2.2 0 0 0 .221.221zm18.366 10.032a.348.348 0 0 1 -.369-.369v-10.774c0-4.278-1.77-6.122-5.237-6.122a5.322 5.322 0 0 0 -5.532 5.606v11.364a.348.348 0 0 1 -.369.369h-.369a.348.348 0 0 1 -.369-.369v-17.26a.348.348 0 0 1 .369-.369h.369a.348.348 0 0 1 .369.369v2.512h.074a5.734 5.734 0 0 1 5.532-3.319c4.057 0 6.344 2.287 6.344 6.934v11.059a.348.348 0 0 1 -.369.369zm6.2 4.647c-.148-.221-.148-.443.074-.516l.3-.221c.221-.148.369-.074.516.148a5.715 5.715 0 0 0 4.795 2.139c3.393 0 5.606-1.7 5.606-6.122v-3.026h-.074c-.885 1.992-2.434 3.393-5.606 3.393a5.924 5.924 0 0 1 -5.975-4.278 15.738 15.738 0 0 1 -.59-5.09 18.12 18.12 0 0 1 .59-5.09 5.924 5.924 0 0 1 5.964-4.277c3.172 0 4.721 1.4 5.606 3.393h.074v-2.582a.348.348 0 0 1 .369-.369h.369a.348.348 0 0 1 .369.369v17.629c0 4.942-2.655 7.155-6.786 7.155a6.939 6.939 0 0 1 -5.601-2.655zm10.769-8.925a14.8 14.8 0 0 0 .516-4.721 15.1 15.1 0 0 0 -.516-4.721 4.886 4.886 0 0 0 -5.016-3.614 4.783 4.783 0 0 0 -4.942 3.541 15.336 15.336 0 0 0 -.59 4.721 15.336 15.336 0 0 0 .59 4.721 4.839 4.839 0 0 0 4.942 3.541 4.567 4.567 0 0 0 5.012-3.468zm7.819-19.252a.348.348 0 0 1 -.369-.369v-1.475a.348.348 0 0 1 .369-.369h.885a.348.348 0 0 1 .369.369v1.549a.348.348 0 0 1 -.369.369h-.885zm.3 23.53a.348.348 0 0 1 -.369-.369v-17.186a.348.348 0 0 1 .369-.369h.369a.348.348 0 0 1 .369.369v17.186a.348.348 0 0 1 -.369.369zm19.1 0a.348.348 0 0 1 -.369-.369v-10.774c0-4.278-1.77-6.122-5.237-6.122a5.322 5.322 0 0 0 -5.532 5.606v11.364a.348.348 0 0 1 -.369.369h-.369a.348.348 0 0 1 -.369-.369v-17.26a.348.348 0 0 1 .369-.369h.369a.348.348 0 0 1 .369.369v2.512h.074a5.734 5.734 0 0 1 5.532-3.319c4.057 0 6.344 2.287 6.344 6.934v11.059a.348.348 0 0 1 -.369.369zm5.827-4.278a14.155 14.155 0 0 1 -.516-4.795 16.789 16.789 0 0 1 .516-4.795 6.686 6.686 0 0 1 12.687 0 12.993 12.993 0 0 1 .516 4.5c0 .221-.148.369-.443.369h-12.027c-.148 0-.221.148-.221.3a13.321 13.321 0 0 0 .443 4.057 5.314 5.314 0 0 0 5.532 3.909 6.615 6.615 0 0 0 5.458-2.582.316.316 0 0 1 .516-.074l.221.221a.316.316 0 0 1 .074.516 7.377 7.377 0 0 1 -6.2 3.024c-3.319 0-5.606-1.549-6.565-4.647zm11.876-5.753a.2.2 0 0 0 .221-.221 9.969 9.969 0 0 0 -.443-3.172 5.22 5.22 0 0 0 -5.311-3.909 5.144 5.144 0 0 0 -5.311 3.909 9.658 9.658 0 0 0 -.443 3.172.2.2 0 0 0 .221.221z" fill="#002838" transform="translate(-17.024 -.813)"/><path d="m12.861 37.618h12.1v-9.146l-2.95-2.95h-6.27l-2.877 2.95zm15.639-24.857-2.877 2.877v6.344l2.877 2.876h9.22v-12.1zm-3.542-12.761h-12.1v9.22l2.879 2.88h6.27l2.95-2.877zm12.76 37.618v-9.146l-2.877-2.95h-9.22v12.1zm-34.741-37.618-2.877 2.877v9.223h12.1v-12.1zm22.645 0v9.22l2.878 2.88h9.22v-12.1zm-6.713 20.58a1.7 1.7 0 1 1 1.7-1.7 1.716 1.716 0 0 1 -1.7 1.7zm-6.709-7.819h-12.1v12.1h9.146l2.95-2.877zm0 15.711-2.95-2.95h-9.15v12.1h9.146l2.95-2.877z" fill="#0ecad4" transform="translate(-.1)"/></g></svg>