<svg height="151.475" viewBox="0 0 112.992 151.475" width="112.992" xmlns="http://www.w3.org/2000/svg"><g fill="#0ecad4"><path d="m259.4 423.609h34.729v-26.42l-8.307-8.308h-18.117l-8.3 8.306z" transform="translate(-222.718 -315.513)"/><path d="m365.182 291.4-8.309 8.309v18.115l8.309 8.306h26.418v-34.73z" transform="translate(-283.51 -254.716)"/><path d="m294.131 193.92h-34.731v26.424l8.306 8.306h18.115l8.308-8.306z" transform="translate(-222.718 -193.92)"/><path d="m391.6 423.609v-26.42l-8.3-8.309h-26.424v34.728z" transform="translate(-283.511 -315.513)"/><path d="m170.226 193.922-8.306 8.309v26.419h34.729v-34.728z" transform="translate(-161.921 -193.921)"/><path d="m356.876 193.92v26.424l8.309 8.306h26.415v-34.73z" transform="translate(-283.511 -193.92)"/><path d="m297.292 334.276a4.975 4.975 0 1 1 4.975-4.975 4.975 4.975 0 0 1 -4.975 4.975" transform="translate(-243.245 -275.253)"/><path d="m196.65 291.4h-34.729v34.73h26.421l8.308-8.306z" transform="translate(-161.921 -254.716)"/><path d="m196.65 397.184-8.308-8.308h-26.421v34.73h26.421l8.308-8.3z" transform="translate(-161.921 -315.511)"/></g><path d="m174.262 558.951a.256.256 0 0 1 -.276-.212l-2.266-8.051h-.043l-2.288 8.051a.255.255 0 0 1 -.275.212h-2.648a.255.255 0 0 1 -.275-.212l-3.919-13.983c-.022-.127.022-.212.169-.212h3.475a.245.245 0 0 1 .275.212l1.864 8.39h.042l2.246-8.39a.255.255 0 0 1 .275-.212h2.182a.255.255 0 0 1 .276.212l2.309 8.39h.043l1.8-8.39a.237.237 0 0 1 .254-.212h3.475a.145.145 0 0 1 .149.212l-3.9 13.983a.263.263 0 0 1 -.3.212z" fill="#002838" transform="translate(-162.136 -412.598)"/><path d="m219.519 558.951a.2.2 0 0 1 -.212-.212v-13.983a.2.2 0 0 1 .212-.212h5.763c3.517 0 5.339 1.992 5.339 4.788 0 2.755-1.844 4.809-5.339 4.809h-2.119a.112.112 0 0 0 -.127.128v4.469a.2.2 0 0 1 -.212.212zm7.372-9.619a1.594 1.594 0 0 0 -1.822-1.631h-1.907a.112.112 0 0 0 -.127.127v3.03a.112.112 0 0 0 .127.127h1.907a1.608 1.608 0 0 0 1.822-1.652" fill="#002838" transform="translate(-197.712 -412.598)"/><path d="m261.936 555.888a16.4 16.4 0 0 1 0-7.2 5.075 5.075 0 0 1 9.6 0 10.118 10.118 0 0 1 .4 3.371.279.279 0 0 1 -.314.286h-9.058c-.115 0-.172.086-.172.2a9.831 9.831 0 0 0 .343 3.058 4.043 4.043 0 0 0 4.173 2.972 4.865 4.865 0 0 0 4.086-1.972.26.26 0 0 1 .4-.057l.171.143a.254.254 0 0 1 .029.4 5.529 5.529 0 0 1 -4.686 2.286 4.767 4.767 0 0 1 -4.973-3.487m8.973-4.343a.151.151 0 0 0 .171-.171 7.936 7.936 0 0 0 -.314-2.372 4.229 4.229 0 0 0 -8.058 0 7.934 7.934 0 0 0 -.315 2.372.151.151 0 0 0 .172.171z" fill="#002838" transform="translate(-224.049 -413.044)"/><path d="m307.924 559.089a.27.27 0 0 1 -.286-.285v-8.116c0-3.2-1.314-4.63-3.972-4.63a3.989 3.989 0 0 0 -4.143 4.2v8.542a.27.27 0 0 1 -.286.285h-.286a.27.27 0 0 1 -.286-.285v-12.97a.27.27 0 0 1 .286-.285h.286a.27.27 0 0 1 .286.285v1.914h.029a4.311 4.311 0 0 1 4.172-2.485c3.058 0 4.772 1.743 4.772 5.229v8.312a.269.269 0 0 1 -.285.285z" fill="#002838" transform="translate(-247.206 -413.044)"/><path d="m334.507 562.575a.275.275 0 0 1 .057-.4l.228-.143a.285.285 0 0 1 .4.086 4.318 4.318 0 0 0 3.6 1.6c2.572 0 4.229-1.257 4.229-4.6v-2.286h-.028a4.1 4.1 0 0 1 -4.229 2.543 4.406 4.406 0 0 1 -4.486-3.229 16.265 16.265 0 0 1 0-7.659 4.407 4.407 0 0 1 4.486-3.228 4.1 4.1 0 0 1 4.229 2.543h.028v-1.972a.27.27 0 0 1 .286-.286h.285a.27.27 0 0 1 .286.286v13.288c0 3.743-2.028 5.4-5.086 5.4a5.122 5.122 0 0 1 -4.286-1.944m8.144-6.715a17.069 17.069 0 0 0 0-7.087 3.984 3.984 0 0 0 -7.544-.028 15.081 15.081 0 0 0 0 7.143 3.984 3.984 0 0 0 7.544-.028" fill="#002838" transform="translate(-269.132 -413.044)"/><path d="m372.451 532.09a.27.27 0 0 1 -.285-.286v-1.143a.27.27 0 0 1 .285-.286h.686a.27.27 0 0 1 .286.286v1.139a.27.27 0 0 1 -.286.286zm.2 17.716a.27.27 0 0 1 -.286-.285v-12.974a.27.27 0 0 1 .286-.285h.286a.27.27 0 0 1 .286.285v12.974a.27.27 0 0 1 -.286.285z" fill="#002838" transform="translate(-293.047 -403.761)"/><path d="m396.382 559.089a.27.27 0 0 1 -.286-.285v-8.116c0-3.2-1.314-4.63-3.972-4.63a3.989 3.989 0 0 0 -4.143 4.2v8.542a.27.27 0 0 1 -.286.285h-.286a.27.27 0 0 1 -.286-.285v-12.97a.27.27 0 0 1 .286-.285h.286a.27.27 0 0 1 .286.285v1.914h.028a4.312 4.312 0 0 1 4.172-2.485c3.058 0 4.772 1.743 4.772 5.229v8.312a.269.269 0 0 1 -.285.285z" fill="#002838" transform="translate(-302.376 -413.044)"/><path d="m422.679 555.888a16.4 16.4 0 0 1 0-7.2 5.075 5.075 0 0 1 9.6 0 10.14 10.14 0 0 1 .4 3.371.279.279 0 0 1 -.314.286h-9.059c-.115 0-.172.086-.172.2a9.818 9.818 0 0 0 .343 3.058 4.043 4.043 0 0 0 4.172 2.972 4.865 4.865 0 0 0 4.086-1.972.259.259 0 0 1 .4-.057l.171.143a.255.255 0 0 1 .028.4 5.529 5.529 0 0 1 -4.686 2.286 4.767 4.767 0 0 1 -4.973-3.487m8.973-4.343a.151.151 0 0 0 .171-.171 7.937 7.937 0 0 0 -.314-2.372 4.229 4.229 0 0 0 -8.058 0 7.934 7.934 0 0 0 -.315 2.372.152.152 0 0 0 .172.171z" fill="#002838" transform="translate(-324.302 -413.044)"/><path d="m453.474 546.821a1.638 1.638 0 1 1 1.643 1.642 1.6 1.6 0 0 1 -1.643-1.642zm3.02 0a1.382 1.382 0 1 0 -1.378 1.4 1.348 1.348 0 0 0 1.378-1.4zm-1.922.91a.068.068 0 0 1 -.077-.076v-1.685a.068.068 0 0 1 .077-.077h.672a.517.517 0 0 1 .578.536.481.481 0 0 1 -.357.5l.357.715c.034.059 0 .085-.051.085h-.144a.107.107 0 0 1 -.085-.059l-.358-.706h-.384c-.017 0-.026.009-.026.017v.673a.071.071 0 0 1 -.076.076zm.986-1.3c0-.179-.093-.289-.323-.289h-.435c-.017 0-.026.008-.026.017v.536c0 .017.009.017.026.017h.435c.23-.001.323-.103.323-.282z" fill="#002838" transform="translate(-343.758 -413)"/></svg>